{"asset":{"generator":"3D Builder","version":"2.0"},"scene":0,"scenes":[{"nodes":[0]}],"nodes":[{"mesh":0,"matrix":[1,0,0,0,0,-1.1920928955078125E-7,-0.99999988079071045,0,0,0.99999988079071045,-1.1920928955078125E-7,0,-0.00064744183328002691,3.0190756206138758E-7,0.016614247113466263,1]}],"meshes":[{"primitives":[{"attributes":{"POSITION":0,"TEXCOORD_0":1},"mode":4,"indices":2,"material":0}]}],"materials":[{"pbrMetallicRoughness":{"baseColorFactor":[1,1,1,1],"metallicFactor":1,"roughnessFactor":1,"baseColorTexture":{"index":0,"texCoord":0},"metallicRoughnessTexture":{"index":1,"texCoord":0}},"alphaMode":"OPAQUE"}],"textures":[{"source":0,"sampler":0},{"source":1,"sampler":0}],"images":[{"uri":"2831700478_2048x2048_6195987693227547908.png"},{"uri":"2048813606_4x4_17319628118832143767.png"}],"samplers":[{"magFilter":9729,"wrapS":10497,"wrapT":10497}],"accessors":[{"bufferView":0,"byteOffset":0,"count":31683,"componentType":5126,"type":"VEC3","min":[-0.021761078387498856,-0.0090642357245087624,-2.9992702366143931E-7],"max":[0.023055961355566978,0.042292732745409012,0.029078459367156029]},{"bufferView":1,"byteOffset":0,"count":31683,"componentType":5126,"type":"VEC2"},{"bufferView":2,"byteOffset":0,"count":180072,"componentType":5125,"type":"SCALAR"}],"bufferViews":[{"buffer":0,"byteOffset":0,"byteLength":380196,"byteStride":12,"target":34962},{"buffer":0,"byteOffset":380196,"byteLength":253464,"byteStride":8,"target":34962},{"buffer":0,"byteOffset":633660,"byteLength":720288,"target":34963}],"buffers":[{"byteLength":1353948,"uri":"Dragon Fly.bin"}]}