{"asset":{"generator":"3D Builder","version":"2.0"},"scene":0,"scenes":[{"nodes":[0,1,2,3,4,5,8,9,12,13,14,15]}],"nodes":[{"mesh":0,"matrix":[1,0,0,0,0,-1.1920928955078125E-7,-0.99999988079071045,0,0,0.99999988079071045,-1.1920928955078125E-7,0,-0.0021930830553174019,0.26977664232254028,-0.41595572233200073,1]},{"mesh":1,"matrix":[1,0,0,0,0,-1.1920928955078125E-7,-0.99999988079071045,0,0,0.99999988079071045,-1.1920928955078125E-7,0,-0.0021930830553174019,0.26977664232254028,-0.41595572233200073,1]},{"mesh":2,"matrix":[1,0,0,0,0,-1.1920928955078125E-7,-0.99999988079071045,0,0,0.99999988079071045,-1.1920928955078125E-7,0,-0.0021930830553174019,0.26977664232254028,-0.41595572233200073,1]},{"mesh":3,"matrix":[1,0,0,0,0,-1.1920928955078125E-7,-0.99999988079071045,0,0,0.99999988079071045,-1.1920928955078125E-7,0,-0.0021930830553174019,0.26977664232254028,-0.41595572233200073,1]},{"mesh":4,"matrix":[1,0,0,0,0,-1.1920928955078125E-7,-0.99999988079071045,0,0,0.99999988079071045,-1.1920928955078125E-7,0,-0.0021930830553174019,0.26977664232254028,-0.41595572233200073,1]},{"children":[6,7]},{"mesh":5,"matrix":[1,0,0,0,0,-1.1920928955078125E-7,-0.99999988079071045,0,0,0.99999988079071045,-1.1920928955078125E-7,0,-0.0021930830553174019,0.26977664232254028,-0.41595572233200073,1]},{"mesh":6,"matrix":[1,0,0,0,0,-1.1920928955078125E-7,-0.99999988079071045,0,0,0.99999988079071045,-1.1920928955078125E-7,0,-0.0021930830553174019,0.26977664232254028,-0.41595572233200073,1]},{"mesh":7,"matrix":[1,0,0,0,0,-1.1920928955078125E-7,-0.99999988079071045,0,0,0.99999988079071045,-1.1920928955078125E-7,0,-0.0021930830553174019,0.26977664232254028,-0.41595572233200073,1]},{"children":[10,11]},{"mesh":8,"matrix":[1,0,0,0,0,-1.1920928955078125E-7,-0.99999988079071045,0,0,0.99999988079071045,-1.1920928955078125E-7,0,-0.0021930830553174019,0.26977664232254028,-0.41595572233200073,1]},{"mesh":9,"matrix":[1,0,0,0,0,-1.1920928955078125E-7,-0.99999988079071045,0,0,0.99999988079071045,-1.1920928955078125E-7,0,-0.0021930830553174019,0.26977664232254028,-0.41595572233200073,1]},{"mesh":10,"matrix":[1,0,0,0,0,-1.1920928955078125E-7,-0.99999988079071045,0,0,0.99999988079071045,-1.1920928955078125E-7,0,-0.0021930830553174019,0.26977664232254028,-0.41595572233200073,1]},{"mesh":11,"matrix":[1,0,0,0,0,-1.1920928955078125E-7,-0.99999988079071045,0,0,0.99999988079071045,-1.1920928955078125E-7,0,-0.0021930830553174019,0.26977664232254028,-0.41595572233200073,1]},{"mesh":12,"matrix":[1,0,0,0,0,-1.1920928955078125E-7,-0.99999988079071045,0,0,0.99999988079071045,-1.1920928955078125E-7,0,-0.0021930830553174019,0.26977664232254028,-0.41595572233200073,1]},{"mesh":13,"matrix":[1,0,0,0,0,-1.1920928955078125E-7,-0.99999988079071045,0,0,0.99999988079071045,-1.1920928955078125E-7,0,-0.0021930830553174019,0.26977664232254028,-0.41595572233200073,1]}],"meshes":[{"primitives":[{"attributes":{"POSITION":0,"TEXCOORD_0":1},"mode":4,"indices":2,"material":0}]},{"primitives":[{"attributes":{"POSITION":3,"TEXCOORD_0":4},"mode":4,"indices":5,"material":1}]},{"primitives":[{"attributes":{"POSITION":6,"TEXCOORD_0":7},"mode":4,"indices":8,"material":0}]},{"primitives":[{"attributes":{"POSITION":9,"TEXCOORD_0":10},"mode":4,"indices":11,"material":2}]},{"primitives":[{"attributes":{"POSITION":12,"TEXCOORD_0":13},"mode":4,"indices":14,"material":3}]},{"primitives":[{"attributes":{"POSITION":15,"TEXCOORD_0":16},"mode":4,"indices":17,"material":4}]},{"primitives":[{"attributes":{"POSITION":18,"TEXCOORD_0":19},"mode":4,"indices":20,"material":4}]},{"primitives":[{"attributes":{"POSITION":21,"TEXCOORD_0":22},"mode":4,"indices":23,"material":3}]},{"primitives":[{"attributes":{"POSITION":24,"TEXCOORD_0":25},"mode":4,"indices":26,"material":4}]},{"primitives":[{"attributes":{"POSITION":27,"TEXCOORD_0":28},"mode":4,"indices":29,"material":4}]},{"primitives":[{"attributes":{"POSITION":30,"TEXCOORD_0":31},"mode":4,"indices":32,"material":0}]},{"primitives":[{"attributes":{"POSITION":33,"TEXCOORD_0":34},"mode":4,"indices":35,"material":0}]},{"primitives":[{"attributes":{"POSITION":36,"TEXCOORD_0":37},"mode":4,"indices":38,"material":0}]},{"primitives":[{"attributes":{"POSITION":39,"TEXCOORD_0":40},"mode":4,"indices":41,"material":0}]}],"materials":[{"pbrMetallicRoughness":{"baseColorFactor":[1,1,1,1],"metallicFactor":1,"roughnessFactor":1,"baseColorTexture":{"index":0,"texCoord":0},"metallicRoughnessTexture":{"index":1,"texCoord":0}},"alphaMode":"OPAQUE"},{"pbrMetallicRoughness":{"baseColorFactor":[1,1,1,1],"metallicFactor":1,"roughnessFactor":1,"baseColorTexture":{"index":2,"texCoord":0},"metallicRoughnessTexture":{"index":3,"texCoord":0}},"alphaMode":"OPAQUE"},{"pbrMetallicRoughness":{"baseColorFactor":[1,1,1,1],"metallicFactor":1,"roughnessFactor":1,"baseColorTexture":{"index":4,"texCoord":0}},"alphaMode":"OPAQUE"},{"pbrMetallicRoughness":{"baseColorFactor":[1,1,1,1],"metallicFactor":1,"roughnessFactor":1,"baseColorTexture":{"index":5,"texCoord":0},"metallicRoughnessTexture":{"index":6,"texCoord":0}},"alphaMode":"OPAQUE"},{"pbrMetallicRoughness":{"baseColorFactor":[1,1,1,1],"metallicFactor":1,"roughnessFactor":1,"baseColorTexture":{"index":7,"texCoord":0},"metallicRoughnessTexture":{"index":8,"texCoord":0}},"alphaMode":"OPAQUE"}],"textures":[{"source":0,"sampler":0},{"source":1,"sampler":0},{"source":2,"sampler":0},{"source":3,"sampler":0},{"source":4,"sampler":1},{"source":5,"sampler":0},{"source":6,"sampler":0},{"source":7,"sampler":0},{"source":8,"sampler":0}],"images":[{"uri":"texture_7_5141386857210115320.png"},{"uri":"texture_8_393141225444649957.png"},{"uri":"texture_0_6195987693227547908.png"},{"uri":"texture_1_17319628118832143767.png"},{"uri":"texture_2_11154955599688029293.png"},{"uri":"texture_3_5628616909738884392.png"},{"uri":"texture_4_12236992708396575405.png"},{"uri":"texture_5_8121963612834991312.png"},{"uri":"texture_6_18192182391262551305.png"}],"samplers":[{"magFilter":9729,"wrapS":10497,"wrapT":10497},{"magFilter":9728,"wrapS":10497,"wrapT":10497}],"accessors":[{"bufferView":0,"byteOffset":0,"count":132,"componentType":5126,"type":"VEC3","min":[-0.58468145132064819,-0.66093462705612183,-0.14200209081172943],"max":[-0.46287277340888977,-0.63423234224319458,-0.022152550518512726]},{"bufferView":1,"byteOffset":0,"count":132,"componentType":5126,"type":"VEC2"},{"bufferView":2,"byteOffset":0,"count":780,"componentType":5125,"type":"SCALAR"},{"bufferView":3,"byteOffset":0,"count":1712,"componentType":5126,"type":"VEC3","min":[-0.18032287061214447,-0.35976311564445496,-0.25740885734558105],"max":[0.3316771388053894,-0.15223874151706696,0.2224821150302887]},{"bufferView":4,"byteOffset":0,"count":1712,"componentType":5126,"type":"VEC2"},{"bufferView":5,"byteOffset":0,"count":10260,"componentType":5125,"type":"SCALAR"},{"bufferView":6,"byteOffset":0,"count":132,"componentType":5126,"type":"VEC3","min":[-0.14328283071517944,-0.66093391180038452,0.17466846108436584],"max":[-0.067645877599716187,-0.64435315132141113,0.24908889830112457]},{"bufferView":7,"byteOffset":0,"count":132,"componentType":5126,"type":"VEC2"},{"bufferView":8,"byteOffset":0,"count":780,"componentType":5125,"type":"SCALAR"},{"bufferView":9,"byteOffset":0,"count":4,"componentType":5126,"type":"VEC3","min":[-0.3431624174118042,-0.481689453125,0.26360920071601868],"max":[-0.33171796798706055,-0.47716134786605835,0.27718862891197205]},{"bufferView":10,"byteOffset":0,"count":4,"componentType":5126,"type":"VEC2"},{"bufferView":11,"byteOffset":0,"count":6,"componentType":5125,"type":"SCALAR"},{"bufferView":12,"byteOffset":0,"count":664,"componentType":5126,"type":"VEC3","min":[0.37651589512825012,-0.67649382352828979,0.0029924288392066956],"max":[0.58906763792037964,-0.61254346370697021,0.25790417194366455]},{"bufferView":13,"byteOffset":0,"count":664,"componentType":5126,"type":"VEC2"},{"bufferView":14,"byteOffset":0,"count":3192,"componentType":5125,"type":"SCALAR"},{"bufferView":15,"byteOffset":0,"count":559,"componentType":5126,"type":"VEC3","min":[0.47735404968261719,-0.67967277765274048,0.11151650547981262],"max":[0.50368046760559082,-0.66267085075378418,0.16122642159461975]},{"bufferView":16,"byteOffset":0,"count":559,"componentType":5126,"type":"VEC2"},{"bufferView":17,"byteOffset":0,"count":2880,"componentType":5125,"type":"SCALAR"},{"bufferView":18,"byteOffset":0,"count":559,"componentType":5126,"type":"VEC3","min":[0.44045901298522949,-0.66957771778106689,0.12490114569664001],"max":[0.46678540110588074,-0.6525757908821106,0.17461106181144714]},{"bufferView":19,"byteOffset":0,"count":559,"componentType":5126,"type":"VEC2"},{"bufferView":20,"byteOffset":0,"count":2880,"componentType":5125,"type":"SCALAR"},{"bufferView":21,"byteOffset":0,"count":664,"componentType":5126,"type":"VEC3","min":[-0.43599957227706909,-0.43458408117294312,0.015243321657180786],"max":[-0.21661736071109772,-0.354166179895401,0.28049927949905396]},{"bufferView":22,"byteOffset":0,"count":664,"componentType":5126,"type":"VEC2"},{"bufferView":23,"byteOffset":0,"count":3192,"componentType":5125,"type":"SCALAR"},{"bufferView":24,"byteOffset":0,"count":559,"componentType":5126,"type":"VEC3","min":[-0.31280604004859924,-0.42228806018829346,0.12432470917701721],"max":[-0.29127874970436096,-0.40269303321838379,0.17851492762565613]},{"bufferView":25,"byteOffset":0,"count":559,"componentType":5126,"type":"VEC2"},{"bufferView":26,"byteOffset":0,"count":2880,"componentType":5125,"type":"SCALAR"},{"bufferView":27,"byteOffset":0,"count":559,"componentType":5126,"type":"VEC3","min":[-0.3525158166885376,-0.43606612086296082,0.13026812672615051],"max":[-0.33098852634429932,-0.41647106409072876,0.18445836007595062]},{"bufferView":28,"byteOffset":0,"count":559,"componentType":5126,"type":"VEC2"},{"bufferView":29,"byteOffset":0,"count":2880,"componentType":5125,"type":"SCALAR"},{"bufferView":30,"byteOffset":0,"count":132,"componentType":5126,"type":"VEC3","min":[-0.14328283071517944,-0.66093391180038452,0.17466846108436584],"max":[-0.067645877599716187,-0.64435315132141113,0.24908889830112457]},{"bufferView":31,"byteOffset":0,"count":132,"componentType":5126,"type":"VEC2"},{"bufferView":32,"byteOffset":0,"count":780,"componentType":5125,"type":"SCALAR"},{"bufferView":33,"byteOffset":0,"count":132,"componentType":5126,"type":"VEC3","min":[-0.14328283071517944,-0.66093391180038452,0.17466846108436584],"max":[-0.067645877599716187,-0.64435315132141113,0.24908889830112457]},{"bufferView":34,"byteOffset":0,"count":132,"componentType":5126,"type":"VEC2"},{"bufferView":35,"byteOffset":0,"count":780,"componentType":5125,"type":"SCALAR"},{"bufferView":36,"byteOffset":0,"count":132,"componentType":5126,"type":"VEC3","min":[0.40466940402984619,-0.66093391180038452,-0.15981192886829376],"max":[0.48030635714530945,-0.64435315132141113,-0.085391491651535034]},{"bufferView":37,"byteOffset":0,"count":132,"componentType":5126,"type":"VEC2"},{"bufferView":38,"byteOffset":0,"count":780,"componentType":5125,"type":"SCALAR"},{"bufferView":39,"byteOffset":0,"count":132,"componentType":5126,"type":"VEC3","min":[-0.25508037209510803,-0.66093385219573975,-0.26977673172950745],"max":[-0.17944343388080597,-0.64435309171676636,-0.19535627961158752]},{"bufferView":40,"byteOffset":0,"count":132,"componentType":5126,"type":"VEC2"},{"bufferView":41,"byteOffset":0,"count":780,"componentType":5125,"type":"SCALAR"}],"bufferViews":[{"buffer":0,"byteOffset":0,"byteLength":1584,"byteStride":12,"target":34962},{"buffer":0,"byteOffset":1584,"byteLength":1056,"byteStride":8,"target":34962},{"buffer":0,"byteOffset":2640,"byteLength":3120,"target":34963},{"buffer":0,"byteOffset":5760,"byteLength":20544,"byteStride":12,"target":34962},{"buffer":0,"byteOffset":26304,"byteLength":13696,"byteStride":8,"target":34962},{"buffer":0,"byteOffset":40000,"byteLength":41040,"target":34963},{"buffer":0,"byteOffset":81040,"byteLength":1584,"byteStride":12,"target":34962},{"buffer":0,"byteOffset":82624,"byteLength":1056,"byteStride":8,"target":34962},{"buffer":0,"byteOffset":83680,"byteLength":3120,"target":34963},{"buffer":0,"byteOffset":86800,"byteLength":48,"byteStride":12,"target":34962},{"buffer":0,"byteOffset":86848,"byteLength":32,"byteStride":8,"target":34962},{"buffer":0,"byteOffset":86880,"byteLength":24,"target":34963},{"buffer":0,"byteOffset":86904,"byteLength":7968,"byteStride":12,"target":34962},{"buffer":0,"byteOffset":94872,"byteLength":5312,"byteStride":8,"target":34962},{"buffer":0,"byteOffset":100184,"byteLength":12768,"target":34963},{"buffer":0,"byteOffset":112952,"byteLength":6708,"byteStride":12,"target":34962},{"buffer":0,"byteOffset":119660,"byteLength":4472,"byteStride":8,"target":34962},{"buffer":0,"byteOffset":124132,"byteLength":11520,"target":34963},{"buffer":0,"byteOffset":135652,"byteLength":6708,"byteStride":12,"target":34962},{"buffer":0,"byteOffset":142360,"byteLength":4472,"byteStride":8,"target":34962},{"buffer":0,"byteOffset":146832,"byteLength":11520,"target":34963},{"buffer":0,"byteOffset":158352,"byteLength":7968,"byteStride":12,"target":34962},{"buffer":0,"byteOffset":166320,"byteLength":5312,"byteStride":8,"target":34962},{"buffer":0,"byteOffset":171632,"byteLength":12768,"target":34963},{"buffer":0,"byteOffset":184400,"byteLength":6708,"byteStride":12,"target":34962},{"buffer":0,"byteOffset":191108,"byteLength":4472,"byteStride":8,"target":34962},{"buffer":0,"byteOffset":195580,"byteLength":11520,"target":34963},{"buffer":0,"byteOffset":207100,"byteLength":6708,"byteStride":12,"target":34962},{"buffer":0,"byteOffset":213808,"byteLength":4472,"byteStride":8,"target":34962},{"buffer":0,"byteOffset":218280,"byteLength":11520,"target":34963},{"buffer":0,"byteOffset":229800,"byteLength":1584,"byteStride":12,"target":34962},{"buffer":0,"byteOffset":231384,"byteLength":1056,"byteStride":8,"target":34962},{"buffer":0,"byteOffset":232440,"byteLength":3120,"target":34963},{"buffer":0,"byteOffset":235560,"byteLength":1584,"byteStride":12,"target":34962},{"buffer":0,"byteOffset":237144,"byteLength":1056,"byteStride":8,"target":34962},{"buffer":0,"byteOffset":238200,"byteLength":3120,"target":34963},{"buffer":0,"byteOffset":241320,"byteLength":1584,"byteStride":12,"target":34962},{"buffer":0,"byteOffset":242904,"byteLength":1056,"byteStride":8,"target":34962},{"buffer":0,"byteOffset":243960,"byteLength":3120,"target":34963},{"buffer":0,"byteOffset":247080,"byteLength":1584,"byteStride":12,"target":34962},{"buffer":0,"byteOffset":248664,"byteLength":1056,"byteStride":8,"target":34962},{"buffer":0,"byteOffset":249720,"byteLength":3120,"target":34963}],"buffers":[{"byteLength":252840,"uri":"tt1.bin"}]}